<?xml version="1.0" encoding="UTF-8" standalone="no"?>
<!DOCTYPE svg PUBLIC "-//W3C//DTD SVG 1.1//EN"
 "http://www.w3.org/Graphics/SVG/1.1/DTD/svg11.dtd">
<!-- Generated by graphviz version 7.1.0 (0)
 -->
<!-- Title: G Pages: 1 -->
<svg width="131pt" height="127pt"
 viewBox="0.00 0.00 131.00 127.00" xmlns="http://www.w3.org/2000/svg" xmlns:xlink="http://www.w3.org/1999/xlink">
<g id="graph0" class="graph" transform="scale(1 1) rotate(0) translate(4 123)">
<title>G</title>
<polygon fill="white" stroke="none" points="-4,4 -4,-123 127,-123 127,4 -4,4"/>
<!-- src/Main.js -->
<g id="node1" class="node">
<title>src/Main.js</title>
<polygon fill="none" stroke="black" points="90,-119 12,-119 8,-115 8,-83 86,-83 90,-87 90,-119"/>
<polyline fill="none" stroke="black" points="86,-115 8,-115"/>
<polyline fill="none" stroke="black" points="86,-115 86,-83"/>
<polyline fill="none" stroke="black" points="86,-115 90,-119"/>
<text text-anchor="middle" x="49" y="-97.3" font-family="Arial" font-size="14.00">src/Main.js</text>
</g>
<!-- src/Main.purs -->
<g id="node2" class="node">
<title>src/Main.purs</title>
<polygon fill="none" stroke="black" points="98,-36 4,-36 0,-32 0,0 94,0 98,-4 98,-36"/>
<polyline fill="none" stroke="black" points="94,-32 0,-32"/>
<polyline fill="none" stroke="black" points="94,-32 94,0"/>
<polyline fill="none" stroke="black" points="94,-32 98,-36"/>
<text text-anchor="middle" x="49" y="-14.3" font-family="Arial" font-size="14.00">src/Main.purs</text>
</g>
<!-- src/Main.js&#45;&gt;src/Main.purs -->
<g id="edge1" class="edge">
<title>src/Main.js&#45;&gt;src/Main.purs</title>
<path fill="none" stroke="black" d="M49,-82.82C49,-71.2 49,-55.68 49,-42.86"/>
<polygon fill="black" stroke="black" points="50.75,-42.95 49,-37.95 47.25,-42.95 50.75,-42.95"/>
<text text-anchor="middle" x="86" y="-57" font-family="Arial" font-size="10.00">import JS values</text>
</g>
</g>
</svg>
