<?xml version="1.0" encoding="UTF-8" standalone="no"?>
<!DOCTYPE svg PUBLIC "-//W3C//DTD SVG 1.1//EN"
 "http://www.w3.org/Graphics/SVG/1.1/DTD/svg11.dtd">
<!-- Generated by graphviz version 7.1.0 (0)
 -->
<!-- Title: G Pages: 1 -->
<svg width="218pt" height="210pt"
 viewBox="0.00 0.00 218.00 210.00" xmlns="http://www.w3.org/2000/svg" xmlns:xlink="http://www.w3.org/1999/xlink">
<g id="graph0" class="graph" transform="scale(1 1) rotate(0) translate(4 206)">
<title>G</title>
<polygon fill="white" stroke="none" points="-4,4 -4,-206 214,-206 214,4 -4,4"/>
<!-- src/Main.js -->
<g id="node1" class="node">
<title>src/Main.js</title>
<polygon fill="none" stroke="black" points="136,-202 58,-202 54,-198 54,-166 132,-166 136,-170 136,-202"/>
<polyline fill="none" stroke="black" points="132,-198 54,-198"/>
<polyline fill="none" stroke="black" points="132,-198 132,-166"/>
<polyline fill="none" stroke="black" points="132,-198 136,-202"/>
<text text-anchor="middle" x="95" y="-180.3" font-family="Arial" font-size="14.00">src/Main.js</text>
</g>
<!-- src/Main.purs -->
<g id="node2" class="node">
<title>src/Main.purs</title>
<polygon fill="none" stroke="black" points="98,-119 4,-119 0,-115 0,-83 94,-83 98,-87 98,-119"/>
<polyline fill="none" stroke="black" points="94,-115 0,-115"/>
<polyline fill="none" stroke="black" points="94,-115 94,-83"/>
<polyline fill="none" stroke="black" points="94,-115 98,-119"/>
<text text-anchor="middle" x="49" y="-97.3" font-family="Arial" font-size="14.00">src/Main.purs</text>
</g>
<!-- src/Main.js&#45;&gt;src/Main.purs -->
<g id="edge1" class="edge">
<title>src/Main.js&#45;&gt;src/Main.purs</title>
<path fill="none" stroke="black" d="M69.63,-165.72C63.95,-160.66 58.57,-154.67 55,-148 51.38,-141.23 49.63,-133.12 48.85,-125.62"/>
<polygon fill="black" stroke="black" points="50.62,-125.86 48.51,-121 47.13,-126.12 50.62,-125.86"/>
<text text-anchor="middle" x="92" y="-140" font-family="Arial" font-size="10.00">import JS values</text>
</g>
<!-- output/Main/index.d.ts -->
<g id="node3" class="node">
<title>output/Main/index.d.ts</title>
<polygon fill="none" stroke="black" points="169.5,-36 24.5,-36 20.5,-32 20.5,0 165.5,0 169.5,-4 169.5,-36"/>
<polyline fill="none" stroke="black" points="165.5,-32 20.5,-32"/>
<polyline fill="none" stroke="black" points="165.5,-32 165.5,0"/>
<polyline fill="none" stroke="black" points="165.5,-32 169.5,-36"/>
<text text-anchor="middle" x="95" y="-14.3" font-family="Arial" font-size="14.00">output/Main/index.d.ts</text>
</g>
<!-- src/Main.purs&#45;&gt;output/Main/index.d.ts -->
<g id="edge2" class="edge">
<title>src/Main.purs&#45;&gt;output/Main/index.d.ts</title>
<path fill="none" stroke="black" stroke-dasharray="5,2" d="M45.44,-82.56C44.47,-73.59 44.67,-62.73 49,-54 51.49,-48.98 55.08,-44.49 59.17,-40.53"/>
<polygon fill="black" stroke="black" points="60.07,-42.07 62.65,-37.45 57.74,-39.45 60.07,-42.07"/>
<text text-anchor="middle" x="89" y="-57" font-family="Arial" font-size="10.00">generate TS types</text>
</g>
<!-- output/Main/index.d.ts&#45;&gt;src/Main.js -->
<g id="edge3" class="edge">
<title>output/Main/index.d.ts&#45;&gt;src/Main.js</title>
<path fill="none" stroke="black" d="M116.8,-36.24C121.74,-41.37 126.32,-47.41 129,-54 144.71,-92.71 144.71,-109.29 129,-148 127.12,-152.64 124.3,-157 121.07,-160.96"/>
<polygon fill="black" stroke="black" points="119.82,-159.73 117.8,-164.63 122.43,-162.06 119.82,-159.73"/>
<text text-anchor="middle" x="175" y="-98.5" font-family="Arial" font-size="10.00">import TS types</text>
</g>
</g>
</svg>
